<?xml version="1.0" encoding="UTF-8" standalone="no"?>
<!DOCTYPE svg PUBLIC "-//W3C//DTD SVG 1.1//EN" "http://www.w3.org/Graphics/SVG/1.1/DTD/svg11.dtd">
<svg width="100%" height="100%" viewBox="0 0 2363 945" version="1.1" xmlns="http://www.w3.org/2000/svg" xmlns:xlink="http://www.w3.org/1999/xlink" xml:space="preserve" xmlns:serif="http://www.serif.com/" style="fill-rule:evenodd;clip-rule:evenodd;stroke-linejoin:round;stroke-miterlimit:2;">
    <g transform="matrix(1,0,0,1,0,-649.539)">
        <g transform="matrix(0.714457,0,0,0.998988,371.021,-117.281)">
            <g transform="matrix(3.06774,0,0,2.99926,-1908.24,-1889.23)">
                <path d="M452.756,925.197L560.598,925.197L614.38,885.827C614.38,885.827 828.241,925.151 883.848,925.237C935.743,925.316 1530.52,925.269 1530.52,925.269L1530.52,964.639C1530.52,964.639 935.743,964.607 883.848,964.607C828.24,964.607 614.38,925.197 614.38,925.197L560.598,964.567L452.756,964.567C452.756,964.567 452.756,925.197 452.756,925.197Z" style="fill:white;"/>
            </g>
            <g transform="matrix(3.06774,0,0,2.99926,-1908.24,-1948.27)">
                <path d="M614.473,1063.15L668.255,1023.74C668.255,1023.74 883.94,1063.15 937.722,1063.15C991.644,1063.15 1530.44,1062.69 1530.44,1062.69L1530.44,1102.07C1530.44,1102.07 991.69,1102.52 937.722,1102.52C883.94,1102.52 668.255,1063.11 668.255,1063.11L614.473,1102.52L452.756,1102.36L452.756,1062.99L614.473,1063.15Z" style="fill:white;"/>
            </g>
            <g transform="matrix(3.08908,0,0,2.99926,-1939.75,-1947.11)">
                <path d="M673.931,1181.1L728.346,1141.73C728.346,1141.73 941.582,1181.14 994.993,1181.1C1048.59,1181.06 1536.42,1181.1 1530.07,1181.1L1530.07,1220.47C1530.07,1220.47 1048.59,1220.47 994.993,1220.47C941.582,1220.47 728.346,1181.1 728.346,1181.1L673.931,1220.47L459.828,1220.47L459.828,1181.1L673.931,1181.1Z" style="fill:white;"/>
            </g>
        </g>
    </g>
</svg>
